STARTFONT 2.1
FONT -B&H-Lucida Sans Typewriter-Bold-R-Normal-Sans-18-180-72-72-M-110-ISO8859-1
SIZE 18 72 72
FONTBOUNDINGBOX 11 19 0 -3

STARTPROPERTIES 22
FONTNAME_REGISTRY "-"
FOUNDRY "B&H"
FAMILY_NAME "Lucida Sans Typewriter"
WEIGHT_NAME "Bold"
SLANT "R"
SETWIDTH_NAME "Normal"
ADD_STYLE_NAME "Sans"
PIXEL_SIZE 18
POINT_SIZE 180
RESOLUTION_X 72
RESOLUTION_Y 72
SPACING "M"
CHARSET_REGISTRY "ISO8859"
CHARSET_ENCODING "1"
FULL_NAME "LucidaSans-TypewriterBold"
AVERAGE_WIDTH 110
WEIGHT 10
X_HEIGHT 10
QUAD_WIDTH 11
DEFAULT_CHAR 32
FONT_DESCENT 3
FONT_ASCENT 16
ENDPROPERTIES

CHARS 190

STARTCHAR space
ENCODING 32
SWIDTH 602 0
DWIDTH 11 0
BBX 11 19 0 -3
BITMAP
0000
0000
0000
0000
0000
0000
0000
0000
0000
0000
0000
0000
0000
0000
0000
0000
0000
0000
0000
ENDCHAR

STARTCHAR exclam
ENCODING 33
SWIDTH 602 0
DWIDTH 11 0
BBX 11 19 0 -3
BITMAP
0000
0000
0000
0E00
0E00
0E00
0E00
0E00
0600
0400
0400
0000
0000
0E00
0E00
0E00
0000
0000
0000
ENDCHAR

STARTCHAR quotedbl
ENCODING 34
SWIDTH 602 0
DWIDTH 11 0
BBX 11 19 0 -3
BITMAP
0000
0000
39C0
39C0
39C0
3180
3180
0000
0000
0000
0000
0000
0000
0000
0000
0000
0000
0000
0000
ENDCHAR

STARTCHAR numbersign
ENCODING 35
SWIDTH 602 0
DWIDTH 11 0
BBX 11 19 0 -3
BITMAP
0000
0000
0000
0CC0
0CC0
0CC0
3FE0
3FE0
1980
1980
7FC0
7FC0
3300
3300
3300
3300
0000
0000
0000
ENDCHAR

STARTCHAR dollar
ENCODING 36
SWIDTH 602 0
DWIDTH 11 0
BBX 11 19 0 -3
BITMAP
0000
0600
0600
1F80
3FC0
70C0
7000
7800
3E00
1F00
0F80
03C0
01C0
61C0
7F80
3F00
0C00
0C00
0000
ENDCHAR

STARTCHAR percent
ENCODING 37
SWIDTH 602 0
DWIDTH 11 0
BBX 11 19 0 -3
BITMAP
0000
0000
0000
7000
D840
D8C0
D980
DB00
DA00
75C0
0B60
1B60
3360
6360
4360
01C0
0000
0000
0000
ENDCHAR

STARTCHAR ampersand
ENCODING 38
SWIDTH 602 0
DWIDTH 11 0
BBX 11 19 0 -3
BITMAP
0000
0000
0000
0E00
1F00
3B80
3B80
3B00
1E60
7C60
EE60
EF60
E7C0
F380
7FE0
1EE0
0000
0000
0000
ENDCHAR

STARTCHAR quoteright
ENCODING 39
SWIDTH 602 0
DWIDTH 11 0
BBX 11 19 0 -3
BITMAP
0000
0000
1E00
1E00
1E00
0600
1C00
0000
0000
0000
0000
0000
0000
0000
0000
0000
0000
0000
0000
ENDCHAR

STARTCHAR parenleft
ENCODING 40
SWIDTH 602 0
DWIDTH 11 0
BBX 11 19 0 -3
BITMAP
0000
0000
0180
0780
0E00
1C00
1C00
3800
3800
3800
3800
3800
3800
1C00
1C00
0E00
0780
0180
0000
ENDCHAR

STARTCHAR parenright
ENCODING 41
SWIDTH 602 0
DWIDTH 11 0
BBX 11 19 0 -3
BITMAP
0000
0000
3000
3C00
0E00
0700
0700
0380
0380
0380
0380
0380
0380
0700
0700
0E00
3C00
3000
0000
ENDCHAR

STARTCHAR asterisk
ENCODING 42
SWIDTH 602 0
DWIDTH 11 0
BBX 11 19 0 -3
BITMAP
0000
0000
0000
0600
0600
36C0
39C0
0600
1980
1980
0000
0000
0000
0000
0000
0000
0000
0000
0000
ENDCHAR

STARTCHAR plus
ENCODING 43
SWIDTH 602 0
DWIDTH 11 0
BBX 11 19 0 -3
BITMAP
0000
0000
0000
0000
0000
0600
0600
0600
0600
7FE0
7FE0
0600
0600
0600
0600
0000
0000
0000
0000
ENDCHAR

STARTCHAR comma
ENCODING 44
SWIDTH 602 0
DWIDTH 11 0
BBX 11 19 0 -3
BITMAP
0000
0000
0000
0000
0000
0000
0000
0000
0000
0000
0000
0000
0000
1E00
1E00
1E00
0600
1C00
0000
ENDCHAR

STARTCHAR minus
ENCODING 45
SWIDTH 602 0
DWIDTH 11 0
BBX 11 19 0 -3
BITMAP
0000
0000
0000
0000
0000
0000
0000
0000
0000
7FE0
7FE0
0000
0000
0000
0000
0000
0000
0000
0000
ENDCHAR

STARTCHAR period
ENCODING 46
SWIDTH 602 0
DWIDTH 11 0
BBX 11 19 0 -3
BITMAP
0000
0000
0000
0000
0000
0000
0000
0000
0000
0000
0000
0000
0000
0F00
0F00
0F00
0000
0000
0000
ENDCHAR

STARTCHAR slash
ENCODING 47
SWIDTH 602 0
DWIDTH 11 0
BBX 11 19 0 -3
BITMAP
0000
0000
01C0
01C0
0380
0380
0700
0700
0700
0E00
0E00
1C00
1C00
1C00
3800
3800
7000
7000
0000
ENDCHAR

STARTCHAR zero
ENCODING 48
SWIDTH 602 0
DWIDTH 11 0
BBX 11 19 0 -3
BITMAP
0000
0000
0000
0F00
3FC0
39C0
70E0
70E0
70E0
70E0
70E0
70E0
70E0
39C0
3FC0
0F00
0000
0000
0000
ENDCHAR

STARTCHAR one
ENCODING 49
SWIDTH 602 0
DWIDTH 11 0
BBX 11 19 0 -3
BITMAP
0000
0000
0000
0600
7E00
7E00
0E00
0E00
0E00
0E00
0E00
0E00
0E00
0E00
0E00
0E00
0000
0000
0000
ENDCHAR

STARTCHAR two
ENCODING 50
SWIDTH 602 0
DWIDTH 11 0
BBX 11 19 0 -3
BITMAP
0000
0000
0000
3E00
7F00
6380
0380
0380
0700
0E00
1C00
3800
7000
7F80
7F80
7F80
0000
0000
0000
ENDCHAR

STARTCHAR three
ENCODING 51
SWIDTH 602 0
DWIDTH 11 0
BBX 11 19 0 -3
BITMAP
0000
0000
0000
1F00
3F80
31C0
01C0
0380
1E00
1F00
0380
01C0
01C0
33C0
3F80
1E00
0000
0000
0000
ENDCHAR

STARTCHAR four
ENCODING 52
SWIDTH 602 0
DWIDTH 11 0
BBX 11 19 0 -3
BITMAP
0000
0000
0000
0700
0F00
1F00
3700
3700
6700
C700
FFC0
FFC0
0700
0700
0700
0700
0000
0000
0000
ENDCHAR

STARTCHAR five
ENCODING 53
SWIDTH 602 0
DWIDTH 11 0
BBX 11 19 0 -3
BITMAP
0000
0000
0000
3FC0
3FC0
3FC0
3000
3000
3E00
3F80
03C0
01C0
01C0
31C0
3F80
1E00
0000
0000
0000
ENDCHAR

STARTCHAR six
ENCODING 54
SWIDTH 602 0
DWIDTH 11 0
BBX 11 19 0 -3
BITMAP
0000
0000
0000
0F80
3FC0
30C0
7000
7700
7F80
7BC0
71C0
71C0
71C0
39C0
3F80
0F00
0000
0000
0000
ENDCHAR

STARTCHAR seven
ENCODING 55
SWIDTH 602 0
DWIDTH 11 0
BBX 11 19 0 -3
BITMAP
0000
0000
0000
7FC0
7FC0
7FC0
01C0
01C0
0380
0700
0E00
1C00
1C00
3800
3800
3800
0000
0000
0000
ENDCHAR

STARTCHAR eight
ENCODING 56
SWIDTH 602 0
DWIDTH 11 0
BBX 11 19 0 -3
BITMAP
0000
0000
0000
1F00
3F80
71C0
71C0
7980
3F00
1F00
3780
73C0
71C0
71C0
3F80
1F00
0000
0000
0000
ENDCHAR

STARTCHAR nine
ENCODING 57
SWIDTH 602 0
DWIDTH 11 0
BBX 11 19 0 -3
BITMAP
0000
0000
0000
1E00
3F80
7380
71C0
71C0
71C0
7BC0
3FC0
1DC0
01C0
3180
3F80
1E00
0000
0000
0000
ENDCHAR

STARTCHAR colon
ENCODING 58
SWIDTH 602 0
DWIDTH 11 0
BBX 11 19 0 -3
BITMAP
0000
0000
0000
0000
0000
0000
0E00
0E00
0E00
0000
0000
0000
0000
0E00
0E00
0E00
0000
0000
0000
ENDCHAR

STARTCHAR semicolon
ENCODING 59
SWIDTH 602 0
DWIDTH 11 0
BBX 11 19 0 -3
BITMAP
0000
0000
0000
0000
0000
0000
0E00
0E00
0E00
0000
0000
0000
0000
0E00
0E00
0E00
0600
0C00
0000
ENDCHAR

STARTCHAR less
ENCODING 60
SWIDTH 602 0
DWIDTH 11 0
BBX 11 19 0 -3
BITMAP
0000
0000
0000
0000
0000
00C0
03C0
0F00
3C00
E000
E000
3C00
0F00
03C0
00C0
0000
0000
0000
0000
ENDCHAR

STARTCHAR equal
ENCODING 61
SWIDTH 602 0
DWIDTH 11 0
BBX 11 19 0 -3
BITMAP
0000
0000
0000
0000
0000
0000
0000
7FE0
7FE0
0000
0000
7FE0
7FE0
0000
0000
0000
0000
0000
0000
ENDCHAR

STARTCHAR greater
ENCODING 62
SWIDTH 602 0
DWIDTH 11 0
BBX 11 19 0 -3
BITMAP
0000
0000
0000
0000
0000
6000
7800
1E00
0780
00E0
00E0
0780
1E00
7800
6000
0000
0000
0000
0000
ENDCHAR

STARTCHAR question
ENCODING 63
SWIDTH 602 0
DWIDTH 11 0
BBX 11 19 0 -3
BITMAP
0000
0000
0000
3F00
7F80
61C0
01C0
0380
0F00
1C00
1800
0000
0000
1C00
1C00
1C00
0000
0000
0000
ENDCHAR

STARTCHAR at
ENCODING 64
SWIDTH 602 0
DWIDTH 11 0
BBX 11 19 0 -3
BITMAP
0000
0000
0000
0F00
3980
60C0
67C0
CCC0
CCC0
CCC0
CCC0
CFC0
6660
6000
3800
0F80
0000
0000
0000
ENDCHAR

STARTCHAR A
ENCODING 65
SWIDTH 602 0
DWIDTH 11 0
BBX 11 19 0 -3
BITMAP
0000
0000
0000
0E00
0E00
1F00
1300
3380
3380
61C0
7FC0
7FC0
E0E0
E0E0
E0E0
E0E0
0000
0000
0000
ENDCHAR

STARTCHAR B
ENCODING 66
SWIDTH 602 0
DWIDTH 11 0
BBX 11 19 0 -3
BITMAP
0000
0000
0000
7F00
7F80
7380
7380
7300
7E00
7F00
7380
71C0
71C0
73C0
7F80
7E00
0000
0000
0000
ENDCHAR

STARTCHAR C
ENCODING 67
SWIDTH 602 0
DWIDTH 11 0
BBX 11 19 0 -3
BITMAP
0000
0000
0000
0F80
3FC0
78C0
7000
E000
E000
E000
E000
F000
7000
7CC0
3FC0
0F00
0000
0000
0000
ENDCHAR

STARTCHAR D
ENCODING 68
SWIDTH 602 0
DWIDTH 11 0
BBX 11 19 0 -3
BITMAP
0000
0000
0000
7E00
7F80
73C0
71C0
70E0
70E0
70E0
70E0
70E0
71C0
73C0
7F80
7E00
0000
0000
0000
ENDCHAR

STARTCHAR E
ENCODING 69
SWIDTH 602 0
DWIDTH 11 0
BBX 11 19 0 -3
BITMAP
0000
0000
0000
7FC0
7FC0
7000
7000
7000
7F80
7F80
7000
7000
7000
7000
7FC0
7FC0
0000
0000
0000
ENDCHAR

STARTCHAR F
ENCODING 70
SWIDTH 602 0
DWIDTH 11 0
BBX 11 19 0 -3
BITMAP
0000
0000
0000
7FC0
7FC0
7000
7000
7000
7F80
7F80
7000
7000
7000
7000
7000
7000
0000
0000
0000
ENDCHAR

STARTCHAR G
ENCODING 71
SWIDTH 602 0
DWIDTH 11 0
BBX 11 19 0 -3
BITMAP
0000
0000
0000
0F80
3FC0
78C0
7000
E000
E000
E000
E1C0
F1C0
71C0
79C0
3FC0
0FC0
0000
0000
0000
ENDCHAR

STARTCHAR H
ENCODING 72
SWIDTH 602 0
DWIDTH 11 0
BBX 11 19 0 -3
BITMAP
0000
0000
0000
71C0
71C0
71C0
71C0
71C0
7FC0
7FC0
71C0
71C0
71C0
71C0
71C0
71C0
0000
0000
0000
ENDCHAR

STARTCHAR I
ENCODING 73
SWIDTH 602 0
DWIDTH 11 0
BBX 11 19 0 -3
BITMAP
0000
0000
0000
3F80
3F80
0E00
0E00
0E00
0E00
0E00
0E00
0E00
0E00
0E00
3F80
3F80
0000
0000
0000
ENDCHAR

STARTCHAR J
ENCODING 74
SWIDTH 602 0
DWIDTH 11 0
BBX 11 19 0 -3
BITMAP
0000
0000
0000
1FC0
1FC0
01C0
01C0
01C0
01C0
01C0
01C0
01C0
61C0
6380
7F80
7E00
0000
0000
0000
ENDCHAR

STARTCHAR K
ENCODING 75
SWIDTH 602 0
DWIDTH 11 0
BBX 11 19 0 -3
BITMAP
0000
0000
0000
70C0
71C0
7380
7300
7600
7C00
7C00
7E00
7700
7380
73C0
71E0
70E0
0000
0000
0000
ENDCHAR

STARTCHAR L
ENCODING 76
SWIDTH 602 0
DWIDTH 11 0
BBX 11 19 0 -3
BITMAP
0000
0000
0000
3800
3800
3800
3800
3800
3800
3800
3800
3800
3800
3800
3FE0
3FE0
0000
0000
0000
ENDCHAR

STARTCHAR M
ENCODING 77
SWIDTH 602 0
DWIDTH 11 0
BBX 11 19 0 -3
BITMAP
0000
0000
0000
70E0
70E0
78E0
78E0
7DE0
6D60
6D60
6F60
6F60
6660
6660
6060
6060
0000
0000
0000
ENDCHAR

STARTCHAR N
ENCODING 78
SWIDTH 602 0
DWIDTH 11 0
BBX 11 19 0 -3
BITMAP
0000
0000
0000
70C0
70C0
78C0
78C0
7CC0
6EC0
6EC0
67C0
67C0
63C0
61C0
61C0
60C0
0000
0000
0000
ENDCHAR

STARTCHAR O
ENCODING 79
SWIDTH 602 0
DWIDTH 11 0
BBX 11 19 0 -3
BITMAP
0000
0000
0000
0F00
1F80
39C0
39C0
70E0
70E0
70E0
70E0
70E0
39C0
39C0
1F80
0F00
0000
0000
0000
ENDCHAR

STARTCHAR P
ENCODING 80
SWIDTH 602 0
DWIDTH 11 0
BBX 11 19 0 -3
BITMAP
0000
0000
0000
7F00
7F80
73C0
71C0
71C0
7380
7F80
7E00
7000
7000
7000
7000
7000
0000
0000
0000
ENDCHAR

STARTCHAR Q
ENCODING 81
SWIDTH 602 0
DWIDTH 11 0
BBX 11 19 0 -3
BITMAP
0000
0000
0000
0F00
1F80
39C0
39C0
70E0
70E0
70E0
70E0
70E0
39C0
39C0
1F80
0F00
03C0
01C0
0000
ENDCHAR

STARTCHAR R
ENCODING 82
SWIDTH 602 0
DWIDTH 11 0
BBX 11 19 0 -3
BITMAP
0000
0000
0000
7F00
7F80
73C0
71C0
71C0
7380
7E00
7F00
7700
7380
73C0
71C0
71C0
0000
0000
0000
ENDCHAR

STARTCHAR S
ENCODING 83
SWIDTH 602 0
DWIDTH 11 0
BBX 11 19 0 -3
BITMAP
0000
0000
0000
1F80
3FC0
70C0
7000
7C00
7F00
3F80
0FC0
03C0
01C0
61C0
7F80
3F00
0000
0000
0000
ENDCHAR

STARTCHAR T
ENCODING 84
SWIDTH 602 0
DWIDTH 11 0
BBX 11 19 0 -3
BITMAP
0000
0000
0000
FFE0
FFE0
0E00
0E00
0E00
0E00
0E00
0E00
0E00
0E00
0E00
0E00
0E00
0000
0000
0000
ENDCHAR

STARTCHAR U
ENCODING 85
SWIDTH 602 0
DWIDTH 11 0
BBX 11 19 0 -3
BITMAP
0000
0000
0000
70E0
70E0
70E0
70E0
70E0
70E0
70E0
70E0
70E0
70E0
39C0
3FC0
0F00
0000
0000
0000
ENDCHAR

STARTCHAR V
ENCODING 86
SWIDTH 602 0
DWIDTH 11 0
BBX 11 19 0 -3
BITMAP
0000
0000
0000
E0E0
E0E0
E0E0
E0E0
70C0
70C0
71C0
3980
3980
1F00
1F00
0E00
0E00
0000
0000
0000
ENDCHAR

STARTCHAR W
ENCODING 87
SWIDTH 602 0
DWIDTH 11 0
BBX 11 19 0 -3
BITMAP
0000
0000
0000
C0C0
C0C0
CCC0
CCC0
CCC0
EEC0
6E80
7780
7780
7780
3300
3300
3300
0000
0000
0000
ENDCHAR

STARTCHAR X
ENCODING 88
SWIDTH 602 0
DWIDTH 11 0
BBX 11 19 0 -3
BITMAP
0000
0000
0000
7060
78E0
38C0
3DC0
1D80
0F00
0F00
0F00
1B80
3BC0
31C0
71E0
60E0
0000
0000
0000
ENDCHAR

STARTCHAR Y
ENCODING 89
SWIDTH 602 0
DWIDTH 11 0
BBX 11 19 0 -3
BITMAP
0000
0000
0000
E0E0
E0E0
70C0
71C0
3980
3980
1F00
0E00
0E00
0E00
0E00
0E00
0E00
0000
0000
0000
ENDCHAR

STARTCHAR Z
ENCODING 90
SWIDTH 602 0
DWIDTH 11 0
BBX 11 19 0 -3
BITMAP
0000
0000
0000
7FE0
7FE0
01E0
03C0
0780
0780
0F00
1E00
1E00
3C00
7800
7FE0
7FE0
0000
0000
0000
ENDCHAR

STARTCHAR bracketleft
ENCODING 91
SWIDTH 602 0
DWIDTH 11 0
BBX 11 19 0 -3
BITMAP
0000
0000
1F80
1F80
1C00
1C00
1C00
1C00
1C00
1C00
1C00
1C00
1C00
1C00
1C00
1C00
1F80
1F80
0000
ENDCHAR

STARTCHAR backslash
ENCODING 92
SWIDTH 602 0
DWIDTH 11 0
BBX 11 19 0 -3
BITMAP
0000
0000
7000
7000
3800
3800
1C00
1C00
1C00
0E00
0E00
0700
0700
0700
0380
0380
01C0
01C0
0000
ENDCHAR

STARTCHAR bracketright
ENCODING 93
SWIDTH 602 0
DWIDTH 11 0
BBX 11 19 0 -3
BITMAP
0000
0000
3F00
3F00
0700
0700
0700
0700
0700
0700
0700
0700
0700
0700
0700
0700
3F00
3F00
0000
ENDCHAR

STARTCHAR asciicircum
ENCODING 94
SWIDTH 602 0
DWIDTH 11 0
BBX 11 19 0 -3
BITMAP
0000
0000
0000
0000
0400
0E00
0E00
1B00
1B00
3180
3180
60C0
60C0
60C0
0000
0000
0000
0000
0000
ENDCHAR

STARTCHAR underscore
ENCODING 95
SWIDTH 602 0
DWIDTH 11 0
BBX 11 19 0 -3
BITMAP
0000
0000
0000
0000
0000
0000
0000
0000
0000
0000
0000
0000
0000
0000
0000
0000
FFE0
FFE0
0000
ENDCHAR

STARTCHAR quoteleft
ENCODING 96
SWIDTH 602 0
DWIDTH 11 0
BBX 11 19 0 -3
BITMAP
0000
0000
0700
0C00
0F00
0F00
0F00
0000
0000
0000
0000
0000
0000
0000
0000
0000
0000
0000
0000
ENDCHAR

STARTCHAR a
ENCODING 97
SWIDTH 602 0
DWIDTH 11 0
BBX 11 19 0 -3
BITMAP
0000
0000
0000
0000
0000
0000
1F00
3F80
31C0
01C0
0FC0
3FC0
71C0
71C0
7FE0
3CE0
0000
0000
0000
ENDCHAR

STARTCHAR b
ENCODING 98
SWIDTH 602 0
DWIDTH 11 0
BBX 11 19 0 -3
BITMAP
0000
0000
7000
7000
7000
7000
7700
7F80
7BC0
71C0
71C0
71C0
71C0
7380
7F80
6E00
0000
0000
0000
ENDCHAR

STARTCHAR c
ENCODING 99
SWIDTH 602 0
DWIDTH 11 0
BBX 11 19 0 -3
BITMAP
0000
0000
0000
0000
0000
0000
0F80
3FC0
38C0
7000
7000
7000
7000
78C0
3FC0
0F00
0000
0000
0000
ENDCHAR

STARTCHAR d
ENCODING 100
SWIDTH 602 0
DWIDTH 11 0
BBX 11 19 0 -3
BITMAP
0000
0000
01C0
01C0
01C0
01C0
0DC0
3FC0
3BC0
71C0
71C0
71C0
71C0
7BC0
3FC0
1CC0
0000
0000
0000
ENDCHAR

STARTCHAR e
ENCODING 101
SWIDTH 602 0
DWIDTH 11 0
BBX 11 19 0 -3
BITMAP
0000
0000
0000
0000
0000
0000
0F00
3F80
39C0
71C0
7FC0
7FC0
7000
78C0
3FC0
0F80
0000
0000
0000
ENDCHAR

STARTCHAR f
ENCODING 102
SWIDTH 602 0
DWIDTH 11 0
BBX 11 19 0 -3
BITMAP
0000
0000
07C0
0FC0
1C00
1C00
1C00
7FC0
7FC0
1C00
1C00
1C00
1C00
1C00
1C00
1C00
0000
0000
0000
ENDCHAR

STARTCHAR g
ENCODING 103
SWIDTH 602 0
DWIDTH 11 0
BBX 11 19 0 -3
BITMAP
0000
0000
0000
0000
0000
0000
0DC0
3FC0
3BC0
71C0
71C0
71C0
7BC0
3FC0
1DC0
01C0
31C0
3F80
1F00
ENDCHAR

STARTCHAR h
ENCODING 104
SWIDTH 602 0
DWIDTH 11 0
BBX 11 19 0 -3
BITMAP
0000
0000
7000
7000
7000
7000
7780
7FC0
79C0
71C0
71C0
71C0
71C0
71C0
71C0
71C0
0000
0000
0000
ENDCHAR

STARTCHAR i
ENCODING 105
SWIDTH 602 0
DWIDTH 11 0
BBX 11 19 0 -3
BITMAP
0000
0000
0700
0700
0000
0000
3F00
3F00
0700
0700
0700
0700
0700
0700
0700
0700
0000
0000
0000
ENDCHAR

STARTCHAR j
ENCODING 106
SWIDTH 602 0
DWIDTH 11 0
BBX 11 19 0 -3
BITMAP
0000
0000
0700
0700
0000
0000
3F00
3F00
0700
0700
0700
0700
0700
0700
0700
0700
0600
7E00
7800
ENDCHAR

STARTCHAR k
ENCODING 107
SWIDTH 602 0
DWIDTH 11 0
BBX 11 19 0 -3
BITMAP
0000
0000
7000
7000
7000
7000
70C0
71C0
7380
7700
7E00
7E00
7700
7380
73C0
71C0
0000
0000
0000
ENDCHAR

STARTCHAR l
ENCODING 108
SWIDTH 602 0
DWIDTH 11 0
BBX 11 19 0 -3
BITMAP
0000
0000
3F00
3F00
0700
0700
0700
0700
0700
0700
0700
0700
0700
0700
0700
0700
0000
0000
0000
ENDCHAR

STARTCHAR m
ENCODING 109
SWIDTH 602 0
DWIDTH 11 0
BBX 11 19 0 -3
BITMAP
0000
0000
0000
0000
0000
0000
6CC0
7FE0
7760
6660
6660
6660
6660
6660
6660
6660
0000
0000
0000
ENDCHAR

STARTCHAR n
ENCODING 110
SWIDTH 602 0
DWIDTH 11 0
BBX 11 19 0 -3
BITMAP
0000
0000
0000
0000
0000
0000
6780
7FC0
79C0
71C0
71C0
71C0
71C0
71C0
71C0
71C0
0000
0000
0000
ENDCHAR

STARTCHAR o
ENCODING 111
SWIDTH 602 0
DWIDTH 11 0
BBX 11 19 0 -3
BITMAP
0000
0000
0000
0000
0000
0000
0F00
3FC0
39C0
70E0
70E0
70E0
70E0
39C0
3FC0
0F00
0000
0000
0000
ENDCHAR

STARTCHAR p
ENCODING 112
SWIDTH 602 0
DWIDTH 11 0
BBX 11 19 0 -3
BITMAP
0000
0000
0000
0000
0000
0000
6700
7F80
7BC0
71C0
71C0
71C0
71C0
7380
7F80
7600
7000
7000
7000
ENDCHAR

STARTCHAR q
ENCODING 113
SWIDTH 602 0
DWIDTH 11 0
BBX 11 19 0 -3
BITMAP
0000
0000
0000
0000
0000
0000
0DC0
3FC0
3BC0
71C0
71C0
71C0
71C0
7BC0
3FC0
1DC0
01C0
01C0
01C0
ENDCHAR

STARTCHAR r
ENCODING 114
SWIDTH 602 0
DWIDTH 11 0
BBX 11 19 0 -3
BITMAP
0000
0000
0000
0000
0000
0000
39C0
3BC0
3FC0
3CC0
38C0
3800
3800
3800
3800
3800
0000
0000
0000
ENDCHAR

STARTCHAR s
ENCODING 115
SWIDTH 602 0
DWIDTH 11 0
BBX 11 19 0 -3
BITMAP
0000
0000
0000
0000
0000
0000
1F80
3FC0
70C0
7800
3E00
0F80
03C0
61C0
7F80
3F00
0000
0000
0000
ENDCHAR

STARTCHAR t
ENCODING 116
SWIDTH 602 0
DWIDTH 11 0
BBX 11 19 0 -3
BITMAP
0000
0000
0000
0000
0C00
1C00
1C00
7FC0
7FC0
1C00
1C00
1C00
1C00
1C00
0FC0
07C0
0000
0000
0000
ENDCHAR

STARTCHAR u
ENCODING 117
SWIDTH 602 0
DWIDTH 11 0
BBX 11 19 0 -3
BITMAP
0000
0000
0000
0000
0000
0000
71C0
71C0
71C0
71C0
71C0
71C0
71C0
73C0
7FC0
3CC0
0000
0000
0000
ENDCHAR

STARTCHAR v
ENCODING 118
SWIDTH 602 0
DWIDTH 11 0
BBX 11 19 0 -3
BITMAP
0000
0000
0000
0000
0000
0000
7060
7060
7060
78C0
38C0
3D80
1D80
1F00
0F00
0E00
0000
0000
0000
ENDCHAR

STARTCHAR w
ENCODING 119
SWIDTH 602 0
DWIDTH 11 0
BBX 11 19 0 -3
BITMAP
0000
0000
0000
0000
0000
0000
E060
E660
E660
E660
EF40
6F40
7BC0
7B80
3180
3180
0000
0000
0000
ENDCHAR

STARTCHAR x
ENCODING 120
SWIDTH 602 0
DWIDTH 11 0
BBX 11 19 0 -3
BITMAP
0000
0000
0000
0000
0000
0000
70C0
7180
3980
3B00
1E00
0F00
1B80
3380
31C0
61C0
0000
0000
0000
ENDCHAR

STARTCHAR y
ENCODING 121
SWIDTH 602 0
DWIDTH 11 0
BBX 11 19 0 -3
BITMAP
0000
0000
0000
0000
0000
0000
7060
7060
7060
38C0
38C0
1D80
1D80
0F00
0F00
0600
0E00
1C00
1C00
ENDCHAR

STARTCHAR z
ENCODING 122
SWIDTH 602 0
DWIDTH 11 0
BBX 11 19 0 -3
BITMAP
0000
0000
0000
0000
0000
0000
7FC0
7FC0
0380
0700
0E00
1C00
3800
7000
7FC0
7FC0
0000
0000
0000
ENDCHAR

STARTCHAR braceleft
ENCODING 123
SWIDTH 602 0
DWIDTH 11 0
BBX 11 19 0 -3
BITMAP
0000
0000
0FC0
1FC0
1C00
1C00
0E00
0600
0600
3C00
3E00
0600
0600
0C00
1C00
1C00
1FC0
0FC0
0000
ENDCHAR

STARTCHAR bar
ENCODING 124
SWIDTH 602 0
DWIDTH 11 0
BBX 11 19 0 -3
BITMAP
0000
0000
0600
0600
0600
0600
0600
0600
0600
0600
0600
0600
0600
0600
0600
0600
0600
0600
0000
ENDCHAR

STARTCHAR braceright
ENCODING 125
SWIDTH 602 0
DWIDTH 11 0
BBX 11 19 0 -3
BITMAP
0000
0000
7E00
7F00
0700
0700
0E00
0C00
0C00
0780
0F80
0C00
0C00
0600
0700
0700
7F00
7E00
0000
ENDCHAR

STARTCHAR asciitilde
ENCODING 126
SWIDTH 602 0
DWIDTH 11 0
BBX 11 19 0 -3
BITMAP
0000
0000
0000
0000
0000
0000
0000
0000
3E60
6F60
67C0
0000
0000
0000
0000
0000
0000
0000
0000
ENDCHAR

STARTCHAR exclamdown
ENCODING 161
SWIDTH 602 0
DWIDTH 11 0
BBX 11 19 0 -3
BITMAP
0000
0000
0000
0000
0000
0000
0E00
0E00
0E00
0000
0400
0400
0C00
0E00
0E00
0E00
0E00
0E00
0E00
ENDCHAR

STARTCHAR cent
ENCODING 162
SWIDTH 602 0
DWIDTH 11 0
BBX 11 19 0 -3
BITMAP
0000
0000
0000
0300
0300
0FC0
3FE0
3860
7000
7000
7000
7800
3FE0
0FE0
0300
0300
0000
0000
0000
ENDCHAR

STARTCHAR sterling
ENCODING 163
SWIDTH 602 0
DWIDTH 11 0
BBX 11 19 0 -3
BITMAP
0000
0000
0000
07C0
0FE0
1C60
1C00
1C00
7F80
7F80
1C00
1C00
1800
3000
7FE0
7FE0
0000
0000
0000
ENDCHAR

STARTCHAR currency
ENCODING 164
SWIDTH 602 0
DWIDTH 11 0
BBX 11 19 0 -3
BITMAP
0000
0000
0000
0000
C060
4E40
3F80
3180
71C0
71C0
71C0
3180
3F80
4E40
C060
0000
0000
0000
0000
ENDCHAR

STARTCHAR yen
ENCODING 165
SWIDTH 602 0
DWIDTH 11 0
BBX 11 19 0 -3
BITMAP
0000
0000
0000
E0E0
E0E0
70C0
71C0
3980
3B80
1F00
0E00
3F80
0E00
3F80
0E00
0E00
0000
0000
0000
ENDCHAR

STARTCHAR brokenbar
ENCODING 166
SWIDTH 602 0
DWIDTH 11 0
BBX 11 19 0 -3
BITMAP
0000
0000
0600
0600
0600
0600
0600
0600
0000
0000
0000
0600
0600
0600
0600
0600
0600
0600
0000
ENDCHAR

STARTCHAR section
ENCODING 167
SWIDTH 602 0
DWIDTH 11 0
BBX 11 19 0 -3
BITMAP
0000
0000
0000
1F80
3FC0
70C0
7800
3E00
6F80
63C0
71C0
78C0
3EC0
0F80
03C0
61C0
7F80
3F00
0000
ENDCHAR

STARTCHAR dieresis
ENCODING 168
SWIDTH 602 0
DWIDTH 11 0
BBX 11 19 0 -3
BITMAP
0000
0000
0000
1980
1980
0000
0000
0000
0000
0000
0000
0000
0000
0000
0000
0000
0000
0000
0000
ENDCHAR

STARTCHAR copyright
ENCODING 169
SWIDTH 602 0
DWIDTH 11 0
BBX 11 19 0 -3
BITMAP
0000
0000
0000
0F00
3FC0
30C0
6760
6F60
6C60
6C60
6C60
6F60
6760
30C0
3FC0
0F00
0000
0000
0000
ENDCHAR

STARTCHAR ordfeminine
ENCODING 170
SWIDTH 602 0
DWIDTH 11 0
BBX 11 19 0 -3
BITMAP
0000
0000
0000
7F00
7F80
0380
3F80
7380
7380
7FC0
3DC0
0000
0000
0000
0000
0000
0000
0000
0000
ENDCHAR

STARTCHAR guillemotleft
ENCODING 171
SWIDTH 602 0
DWIDTH 11 0
BBX 11 19 0 -3
BITMAP
0000
0000
0000
0000
0000
0000
0000
0880
1DC0
3B80
7700
7700
3B80
1DC0
0880
0000
0000
0000
0000
ENDCHAR

STARTCHAR logicalnot
ENCODING 172
SWIDTH 602 0
DWIDTH 11 0
BBX 11 19 0 -3
BITMAP
0000
0000
0000
0000
0000
0000
0000
0000
7FE0
7FE0
0060
0060
0060
0000
0000
0000
0000
0000
0000
ENDCHAR

STARTCHAR hyphen
ENCODING 173
SWIDTH 602 0
DWIDTH 11 0
BBX 11 19 0 -3
BITMAP
0000
0000
0000
0000
0000
0000
0000
0000
0000
1F00
1F00
0000
0000
0000
0000
0000
0000
0000
0000
ENDCHAR

STARTCHAR registered
ENCODING 174
SWIDTH 602 0
DWIDTH 11 0
BBX 11 19 0 -3
BITMAP
0000
0000
0000
0F00
3FC0
30C0
6F60
6D60
6E60
6D60
30C0
3FC0
0F00
0000
0000
0000
0000
0000
0000
ENDCHAR

STARTCHAR macron
ENCODING 175
SWIDTH 602 0
DWIDTH 11 0
BBX 11 19 0 -3
BITMAP
0000
0000
0000
0000
1F00
0000
0000
0000
0000
0000
0000
0000
0000
0000
0000
0000
0000
0000
0000
ENDCHAR

STARTCHAR degree
ENCODING 176
SWIDTH 602 0
DWIDTH 11 0
BBX 11 19 0 -3
BITMAP
0000
0000
0000
0F00
1980
1980
1980
0F00
0000
0000
0000
0000
0000
0000
0000
0000
0000
0000
0000
ENDCHAR

STARTCHAR plusminus
ENCODING 177
SWIDTH 602 0
DWIDTH 11 0
BBX 11 19 0 -3
BITMAP
0000
0000
0000
0000
0600
0600
0600
7FE0
7FE0
0600
0600
0600
0000
7FE0
7FE0
0000
0000
0000
0000
ENDCHAR

STARTCHAR twosuperior
ENCODING 178
SWIDTH 602 0
DWIDTH 11 0
BBX 11 19 0 -3
BITMAP
0000
0000
0000
3F00
3F80
0380
0780
1F00
3800
3F80
3F80
0000
0000
0000
0000
0000
0000
0000
0000
ENDCHAR

STARTCHAR threesuperior
ENCODING 179
SWIDTH 602 0
DWIDTH 11 0
BBX 11 19 0 -3
BITMAP
0000
0000
0000
3F00
3F80
0380
1F00
1F80
0380
3F80
3F00
0000
0000
0000
0000
0000
0000
0000
0000
ENDCHAR

STARTCHAR acute
ENCODING 180
SWIDTH 602 0
DWIDTH 11 0
BBX 11 19 0 -3
BITMAP
0000
0000
0000
0F00
1C00
0000
0000
0000
0000
0000
0000
0000
0000
0000
0000
0000
0000
0000
0000
ENDCHAR

STARTCHAR mu
ENCODING 181
SWIDTH 602 0
DWIDTH 11 0
BBX 11 19 0 -3
BITMAP
0000
0000
0000
0000
0000
0000
71C0
71C0
71C0
71C0
71C0
71C0
71C0
7BC0
7FC0
7CC0
7000
7000
7000
ENDCHAR

STARTCHAR paragraph
ENCODING 182
SWIDTH 602 0
DWIDTH 11 0
BBX 11 19 0 -3
BITMAP
0000
0000
0000
3FC0
7EC0
7EC0
7EC0
7EC0
3EC0
1EC0
06C0
06C0
06C0
06C0
06C0
06C0
06C0
06C0
0000
ENDCHAR

STARTCHAR periodcentered
ENCODING 183
SWIDTH 602 0
DWIDTH 11 0
BBX 11 19 0 -3
BITMAP
0000
0000
0000
0000
0000
0000
0000
0000
0F00
0F00
0F00
0F00
0000
0000
0000
0000
0000
0000
0000
ENDCHAR

STARTCHAR cedilla
ENCODING 184
SWIDTH 602 0
DWIDTH 11 0
BBX 11 19 0 -3
BITMAP
0000
0000
0000
0000
0000
0000
0000
0000
0000
0000
0000
0000
0000
0000
0000
0000
0600
0300
0E00
ENDCHAR

STARTCHAR onesuperior
ENCODING 185
SWIDTH 602 0
DWIDTH 11 0
BBX 11 19 0 -3
BITMAP
0000
0000
0000
0E00
3E00
3E00
0E00
0E00
0E00
3F80
3F80
0000
0000
0000
0000
0000
0000
0000
0000
ENDCHAR

STARTCHAR ordmasculine
ENCODING 186
SWIDTH 602 0
DWIDTH 11 0
BBX 11 19 0 -3
BITMAP
0000
0000
0000
1F00
3F80
71C0
71C0
71C0
71C0
3F80
1F00
0000
0000
0000
0000
0000
0000
0000
0000
ENDCHAR

STARTCHAR guillemotright
ENCODING 187
SWIDTH 602 0
DWIDTH 11 0
BBX 11 19 0 -3
BITMAP
0000
0000
0000
0000
0000
0000
0000
2200
7700
3B80
1DC0
1DC0
3B80
7700
2200
0000
0000
0000
0000
ENDCHAR

STARTCHAR onequarter
ENCODING 188
SWIDTH 602 0
DWIDTH 11 0
BBX 11 19 0 -3
BITMAP
0000
0000
0060
7060
F0C0
7180
7300
7300
7600
7DC0
1AC0
34C0
3FE0
6FE0
C1C0
C1C0
0000
0000
0000
ENDCHAR

STARTCHAR onehalf
ENCODING 189
SWIDTH 602 0
DWIDTH 11 0
BBX 11 19 0 -3
BITMAP
0000
0000
00C0
70C0
F180
7300
7300
7600
7600
7BC0
1EE0
36E0
30C0
6300
C7E0
C7E0
0000
0000
0000
ENDCHAR

STARTCHAR threequarters
ENCODING 190
SWIDTH 602 0
DWIDTH 11 0
BBX 11 19 0 -3
BITMAP
0000
0000
0060
7060
F8C0
1980
7300
1B00
FE00
7DC0
1AC0
34C0
3FE0
6FE0
C1C0
C1C0
0000
0000
0000
ENDCHAR

STARTCHAR questiondown
ENCODING 191
SWIDTH 602 0
DWIDTH 11 0
BBX 11 19 0 -3
BITMAP
0000
0000
0000
0000
0000
0000
0380
0380
0380
0000
0000
0300
0700
1E00
3800
7000
70C0
3FC0
1F80
ENDCHAR

STARTCHAR Agrave
ENCODING 192
SWIDTH 602 0
DWIDTH 11 0
BBX 11 19 0 -3
BITMAP
1E00
0700
0000
0E00
0E00
1F00
1300
3380
3380
61C0
7FC0
7FC0
E0E0
E0E0
E0E0
E0E0
0000
0000
0000
ENDCHAR

STARTCHAR Aacute
ENCODING 193
SWIDTH 602 0
DWIDTH 11 0
BBX 11 19 0 -3
BITMAP
0F00
1C00
0000
0E00
0E00
1F00
1300
3380
3380
61C0
7FC0
7FC0
E0E0
E0E0
E0E0
E0E0
0000
0000
0000
ENDCHAR

STARTCHAR Acircumflex
ENCODING 194
SWIDTH 602 0
DWIDTH 11 0
BBX 11 19 0 -3
BITMAP
0E00
1B00
0000
0E00
0E00
1F00
1300
3380
3380
61C0
7FC0
7FC0
E0E0
E0E0
E0E0
E0E0
0000
0000
0000
ENDCHAR

STARTCHAR Atilde
ENCODING 195
SWIDTH 602 0
DWIDTH 11 0
BBX 11 19 0 -3
BITMAP
0E80
1700
0000
0E00
0E00
1F00
1300
3380
3380
61C0
7FC0
7FC0
E0E0
E0E0
E0E0
E0E0
0000
0000
0000
ENDCHAR

STARTCHAR Adieresis
ENCODING 196
SWIDTH 602 0
DWIDTH 11 0
BBX 11 19 0 -3
BITMAP
1B00
1B00
0000
0E00
0E00
1F00
1300
3380
3380
61C0
7FC0
7FC0
E0E0
E0E0
E0E0
E0E0
0000
0000
0000
ENDCHAR

STARTCHAR Aring
ENCODING 197
SWIDTH 602 0
DWIDTH 11 0
BBX 11 19 0 -3
BITMAP
0000
0E00
1300
0E00
0E00
1F00
1300
3380
3380
61C0
7FC0
7FC0
E0E0
E0E0
E0E0
E0E0
0000
0000
0000
ENDCHAR

STARTCHAR AE
ENCODING 198
SWIDTH 602 0
DWIDTH 11 0
BBX 11 19 0 -3
BITMAP
0000
0000
0000
07E0
0FE0
0F80
1B80
1B80
33E0
33E0
3F80
7F80
6380
E380
E3E0
E3E0
0000
0000
0000
ENDCHAR

STARTCHAR Ccedilla
ENCODING 199
SWIDTH 602 0
DWIDTH 11 0
BBX 11 19 0 -3
BITMAP
0000
0000
0000
0F80
3FC0
78C0
7000
E000
E000
E000
E000
F000
7000
7CC0
3FC0
0F00
0600
0300
0E00
ENDCHAR

STARTCHAR Egrave
ENCODING 200
SWIDTH 602 0
DWIDTH 11 0
BBX 11 19 0 -3
BITMAP
1E00
0700
0000
7FC0
7FC0
7000
7000
7000
7F80
7F80
7000
7000
7000
7000
7FC0
7FC0
0000
0000
0000
ENDCHAR

STARTCHAR Eacute
ENCODING 201
SWIDTH 602 0
DWIDTH 11 0
BBX 11 19 0 -3
BITMAP
0F00
1C00
0000
7FC0
7FC0
7000
7000
7000
7F80
7F80
7000
7000
7000
7000
7FC0
7FC0
0000
0000
0000
ENDCHAR

STARTCHAR Ecircumflex
ENCODING 202
SWIDTH 602 0
DWIDTH 11 0
BBX 11 19 0 -3
BITMAP
0E00
1B00
0000
7FC0
7FC0
7000
7000
7000
7F80
7F80
7000
7000
7000
7000
7FC0
7FC0
0000
0000
0000
ENDCHAR

STARTCHAR Edieresis
ENCODING 203
SWIDTH 602 0
DWIDTH 11 0
BBX 11 19 0 -3
BITMAP
1980
1980
0000
7FC0
7FC0
7000
7000
7000
7F80
7F80
7000
7000
7000
7000
7FC0
7FC0
0000
0000
0000
ENDCHAR

STARTCHAR Igrave
ENCODING 204
SWIDTH 602 0
DWIDTH 11 0
BBX 11 19 0 -3
BITMAP
1E00
0700
0000
3F80
3F80
0E00
0E00
0E00
0E00
0E00
0E00
0E00
0E00
0E00
3F80
3F80
0000
0000
0000
ENDCHAR

STARTCHAR Iacute
ENCODING 205
SWIDTH 602 0
DWIDTH 11 0
BBX 11 19 0 -3
BITMAP
0F00
1C00
0000
3F80
3F80
0E00
0E00
0E00
0E00
0E00
0E00
0E00
0E00
0E00
3F80
3F80
0000
0000
0000
ENDCHAR

STARTCHAR Icircumflex
ENCODING 206
SWIDTH 602 0
DWIDTH 11 0
BBX 11 19 0 -3
BITMAP
0E00
1B00
0000
3F80
3F80
0E00
0E00
0E00
0E00
0E00
0E00
0E00
0E00
0E00
3F80
3F80
0000
0000
0000
ENDCHAR

STARTCHAR Idieresis
ENCODING 207
SWIDTH 602 0
DWIDTH 11 0
BBX 11 19 0 -3
BITMAP
1980
1980
0000
3F80
3F80
0E00
0E00
0E00
0E00
0E00
0E00
0E00
0E00
0E00
3F80
3F80
0000
0000
0000
ENDCHAR

STARTCHAR Eth
ENCODING 208
SWIDTH 602 0
DWIDTH 11 0
BBX 11 19 0 -3
BITMAP
0000
0000
0000
7E00
7F80
73C0
71C0
70E0
FCE0
FCE0
70E0
70E0
71C0
73C0
7F80
7E00
0000
0000
0000
ENDCHAR

STARTCHAR Ntilde
ENCODING 209
SWIDTH 602 0
DWIDTH 11 0
BBX 11 19 0 -3
BITMAP
0E80
1700
0000
70C0
70C0
78C0
78C0
7CC0
6EC0
6EC0
67C0
67C0
63C0
61C0
61C0
60C0
0000
0000
0000
ENDCHAR

STARTCHAR Ograve
ENCODING 210
SWIDTH 602 0
DWIDTH 11 0
BBX 11 19 0 -3
BITMAP
1E00
0700
0000
0F00
1F80
39C0
39C0
70E0
70E0
70E0
70E0
70E0
39C0
39C0
1F80
0F00
0000
0000
0000
ENDCHAR

STARTCHAR Oacute
ENCODING 211
SWIDTH 602 0
DWIDTH 11 0
BBX 11 19 0 -3
BITMAP
0780
0E00
0000
0F00
1F80
39C0
39C0
70E0
70E0
70E0
70E0
70E0
39C0
39C0
1F80
0F00
0000
0000
0000
ENDCHAR

STARTCHAR Ocircumflex
ENCODING 212
SWIDTH 602 0
DWIDTH 11 0
BBX 11 19 0 -3
BITMAP
0700
0D80
0000
0F00
1F80
39C0
39C0
70E0
70E0
70E0
70E0
70E0
39C0
39C0
1F80
0F00
0000
0000
0000
ENDCHAR

STARTCHAR Otilde
ENCODING 213
SWIDTH 602 0
DWIDTH 11 0
BBX 11 19 0 -3
BITMAP
0E80
1700
0000
0F00
1F80
39C0
39C0
70E0
70E0
70E0
70E0
70E0
39C0
39C0
1F80
0F00
0000
0000
0000
ENDCHAR

STARTCHAR Odieresis
ENCODING 214
SWIDTH 602 0
DWIDTH 11 0
BBX 11 19 0 -3
BITMAP
1980
1980
0000
0F00
1F80
39C0
39C0
70E0
70E0
70E0
70E0
70E0
39C0
39C0
1F80
0F00
0000
0000
0000
ENDCHAR

STARTCHAR multiply
ENCODING 215
SWIDTH 602 0
DWIDTH 11 0
BBX 11 19 0 -3
BITMAP
0000
0000
0000
0000
0000
6060
70E0
39C0
1D80
0700
0E00
1B80
39C0
70E0
6060
0000
0000
0000
0000
ENDCHAR

STARTCHAR Oslash
ENCODING 216
SWIDTH 602 0
DWIDTH 11 0
BBX 11 19 0 -3
BITMAP
0000
0000
0060
0F60
1FC0
39C0
39C0
72E0
72E0
76E0
74E0
74E0
39C0
39C0
3F80
6F00
6000
0000
0000
ENDCHAR

STARTCHAR Ugrave
ENCODING 217
SWIDTH 602 0
DWIDTH 11 0
BBX 11 19 0 -3
BITMAP
1E00
0700
0000
70E0
70E0
70E0
70E0
70E0
70E0
70E0
70E0
70E0
70E0
39C0
3FC0
0F00
0000
0000
0000
ENDCHAR

STARTCHAR Uacute
ENCODING 218
SWIDTH 602 0
DWIDTH 11 0
BBX 11 19 0 -3
BITMAP
0780
0E00
0000
70E0
70E0
70E0
70E0
70E0
70E0
70E0
70E0
70E0
70E0
39C0
3FC0
0F00
0000
0000
0000
ENDCHAR

STARTCHAR Ucircumflex
ENCODING 219
SWIDTH 602 0
DWIDTH 11 0
BBX 11 19 0 -3
BITMAP
0700
0D80
0000
70E0
70E0
70E0
70E0
70E0
70E0
70E0
70E0
70E0
70E0
39C0
3FC0
0F00
0000
0000
0000
ENDCHAR

STARTCHAR Udieresis
ENCODING 220
SWIDTH 602 0
DWIDTH 11 0
BBX 11 19 0 -3
BITMAP
1980
1980
0000
70E0
70E0
70E0
70E0
70E0
70E0
70E0
70E0
70E0
70E0
39C0
3FC0
0F00
0000
0000
0000
ENDCHAR

STARTCHAR Yacute
ENCODING 221
SWIDTH 602 0
DWIDTH 11 0
BBX 11 19 0 -3
BITMAP
0F00
1C00
0000
E0E0
E0E0
70C0
71C0
3980
3980
1F00
0E00
0E00
0E00
0E00
0E00
0E00
0000
0000
0000
ENDCHAR

STARTCHAR Thorn
ENCODING 222
SWIDTH 602 0
DWIDTH 11 0
BBX 11 19 0 -3
BITMAP
0000
0000
0000
7000
7000
7000
7F00
7F80
73C0
71C0
73C0
7F80
7E00
7000
7000
7000
0000
0000
0000
ENDCHAR

STARTCHAR germandbls
ENCODING 223
SWIDTH 602 0
DWIDTH 11 0
BBX 11 19 0 -3
BITMAP
0000
0000
0F00
3F80
7380
7180
7300
7600
7700
7780
73C0
71E0
70E0
70E0
73E0
73C0
0000
0000
0000
ENDCHAR

STARTCHAR agrave
ENCODING 224
SWIDTH 602 0
DWIDTH 11 0
BBX 11 19 0 -3
BITMAP
0000
0000
0000
1E00
0700
0000
1F00
3F80
31C0
01C0
0FC0
3FC0
71C0
71C0
7FE0
3CE0
0000
0000
0000
ENDCHAR

STARTCHAR aacute
ENCODING 225
SWIDTH 602 0
DWIDTH 11 0
BBX 11 19 0 -3
BITMAP
0000
0000
0000
0780
0E00
0000
1F00
3F80
31C0
01C0
0FC0
3FC0
71C0
71C0
7FE0
3CE0
0000
0000
0000
ENDCHAR

STARTCHAR acircumflex
ENCODING 226
SWIDTH 602 0
DWIDTH 11 0
BBX 11 19 0 -3
BITMAP
0000
0000
0000
0E00
1B00
0000
1F00
3F80
31C0
01C0
0FC0
3FC0
71C0
71C0
7FE0
3CE0
0000
0000
0000
ENDCHAR

STARTCHAR atilde
ENCODING 227
SWIDTH 602 0
DWIDTH 11 0
BBX 11 19 0 -3
BITMAP
0000
0000
0000
0E80
1700
0000
1F00
3F80
31C0
01C0
0FC0
3FC0
71C0
71C0
7FE0
3CE0
0000
0000
0000
ENDCHAR

STARTCHAR adieresis
ENCODING 228
SWIDTH 602 0
DWIDTH 11 0
BBX 11 19 0 -3
BITMAP
0000
0000
0000
1980
1980
0000
1F00
3F80
31C0
01C0
0FC0
3FC0
71C0
71C0
7FE0
3CE0
0000
0000
0000
ENDCHAR

STARTCHAR aring
ENCODING 229
SWIDTH 602 0
DWIDTH 11 0
BBX 11 19 0 -3
BITMAP
0000
0000
0E00
1300
0E00
0000
1F00
3F80
31C0
01C0
0FC0
3FC0
71C0
71C0
7FE0
3CE0
0000
0000
0000
ENDCHAR

STARTCHAR ae
ENCODING 230
SWIDTH 602 0
DWIDTH 11 0
BBX 11 19 0 -3
BITMAP
0000
0000
0000
0000
0000
0000
3B80
7FC0
6CE0
0CE0
7FE0
FFE0
CC00
CC60
FFE0
73C0
0000
0000
0000
ENDCHAR

STARTCHAR ccedilla
ENCODING 231
SWIDTH 602 0
DWIDTH 11 0
BBX 11 19 0 -3
BITMAP
0000
0000
0000
0000
0000
0000
0F80
3FC0
38C0
7000
7000
7000
7000
78C0
3FC0
0F00
0600
0300
0E00
ENDCHAR

STARTCHAR egrave
ENCODING 232
SWIDTH 602 0
DWIDTH 11 0
BBX 11 19 0 -3
BITMAP
0000
0000
0000
1E00
0700
0000
0F00
3F80
39C0
71C0
7FC0
7FC0
7000
78C0
3FC0
0F80
0000
0000
0000
ENDCHAR

STARTCHAR eacute
ENCODING 233
SWIDTH 602 0
DWIDTH 11 0
BBX 11 19 0 -3
BITMAP
0000
0000
0000
0780
0E00
0000
0F00
3F80
39C0
71C0
7FC0
7FC0
7000
78C0
3FC0
0F80
0000
0000
0000
ENDCHAR

STARTCHAR ecircumflex
ENCODING 234
SWIDTH 602 0
DWIDTH 11 0
BBX 11 19 0 -3
BITMAP
0000
0000
0000
0700
0D80
0000
0F00
3F80
39C0
71C0
7FC0
7FC0
7000
78C0
3FC0
0F80
0000
0000
0000
ENDCHAR

STARTCHAR edieresis
ENCODING 235
SWIDTH 602 0
DWIDTH 11 0
BBX 11 19 0 -3
BITMAP
0000
0000
0000
1980
1980
0000
0F00
3F80
39C0
71C0
7FC0
7FC0
7000
78C0
3FC0
0F80
0000
0000
0000
ENDCHAR

STARTCHAR igrave
ENCODING 236
SWIDTH 602 0
DWIDTH 11 0
BBX 11 19 0 -3
BITMAP
0000
0000
0000
0F00
0380
0000
3F00
3F00
0700
0700
0700
0700
0700
0700
0700
0700
0000
0000
0000
ENDCHAR

STARTCHAR iacute
ENCODING 237
SWIDTH 602 0
DWIDTH 11 0
BBX 11 19 0 -3
BITMAP
0000
0000
0000
0780
0E00
0000
3F00
3F00
0700
0700
0700
0700
0700
0700
0700
0700
0000
0000
0000
ENDCHAR

STARTCHAR icircumflex
ENCODING 238
SWIDTH 602 0
DWIDTH 11 0
BBX 11 19 0 -3
BITMAP
0000
0000
0000
0700
0D80
0000
3F00
3F00
0700
0700
0700
0700
0700
0700
0700
0700
0000
0000
0000
ENDCHAR

STARTCHAR idieresis
ENCODING 239
SWIDTH 602 0
DWIDTH 11 0
BBX 11 19 0 -3
BITMAP
0000
0000
0000
1980
1980
0000
3F00
3F00
0700
0700
0700
0700
0700
0700
0700
0700
0000
0000
0000
ENDCHAR

STARTCHAR eth
ENCODING 240
SWIDTH 602 0
DWIDTH 11 0
BBX 11 19 0 -3
BITMAP
0000
0000
3980
3E00
0700
1B80
01C0
0FC0
3FE0
39E0
70E0
70E0
70E0
39C0
3FC0
0F00
0000
0000
0000
ENDCHAR

STARTCHAR ntilde
ENCODING 241
SWIDTH 602 0
DWIDTH 11 0
BBX 11 19 0 -3
BITMAP
0000
0000
0000
0E80
1700
0000
6780
7FC0
79C0
71C0
71C0
71C0
71C0
71C0
71C0
71C0
0000
0000
0000
ENDCHAR

STARTCHAR ograve
ENCODING 242
SWIDTH 602 0
DWIDTH 11 0
BBX 11 19 0 -3
BITMAP
0000
0000
0000
1E00
0700
0000
0F00
3FC0
39C0
70E0
70E0
70E0
70E0
39C0
3FC0
0F00
0000
0000
0000
ENDCHAR

STARTCHAR oacute
ENCODING 243
SWIDTH 602 0
DWIDTH 11 0
BBX 11 19 0 -3
BITMAP
0000
0000
0000
0780
0E00
0000
0F00
3FC0
39C0
70E0
70E0
70E0
70E0
39C0
3FC0
0F00
0000
0000
0000
ENDCHAR

STARTCHAR ocircumflex
ENCODING 244
SWIDTH 602 0
DWIDTH 11 0
BBX 11 19 0 -3
BITMAP
0000
0000
0000
0700
0D80
0000
0F00
3FC0
39C0
70E0
70E0
70E0
70E0
39C0
3FC0
0F00
0000
0000
0000
ENDCHAR

STARTCHAR otilde
ENCODING 245
SWIDTH 602 0
DWIDTH 11 0
BBX 11 19 0 -3
BITMAP
0000
0000
0000
0E80
1700
0000
0F00
3FC0
39C0
70E0
70E0
70E0
70E0
39C0
3FC0
0F00
0000
0000
0000
ENDCHAR

STARTCHAR odieresis
ENCODING 246
SWIDTH 602 0
DWIDTH 11 0
BBX 11 19 0 -3
BITMAP
0000
0000
0000
1980
1980
0000
0F00
3FC0
39C0
70E0
70E0
70E0
70E0
39C0
3FC0
0F00
0000
0000
0000
ENDCHAR

STARTCHAR divide
ENCODING 247
SWIDTH 602 0
DWIDTH 11 0
BBX 11 19 0 -3
BITMAP
0000
0000
0000
0000
0000
0600
0600
0000
0000
7FE0
7FE0
0000
0000
0600
0600
0000
0000
0000
0000
ENDCHAR

STARTCHAR oslash
ENCODING 248
SWIDTH 602 0
DWIDTH 11 0
BBX 11 19 0 -3
BITMAP
0000
0000
0000
0000
0000
0000
0F60
3FC0
39C0
73E0
76E0
76E0
7CE0
39C0
3FC0
6F00
0000
0000
0000
ENDCHAR

STARTCHAR ugrave
ENCODING 249
SWIDTH 602 0
DWIDTH 11 0
BBX 11 19 0 -3
BITMAP
0000
0000
0000
1E00
0700
0000
71C0
71C0
71C0
71C0
71C0
71C0
71C0
73C0
7FC0
3CC0
0000
0000
0000
ENDCHAR

STARTCHAR uacute
ENCODING 250
SWIDTH 602 0
DWIDTH 11 0
BBX 11 19 0 -3
BITMAP
0000
0000
0000
0F00
1C00
0000
71C0
71C0
71C0
71C0
71C0
71C0
71C0
73C0
7FC0
3CC0
0000
0000
0000
ENDCHAR

STARTCHAR ucircumflex
ENCODING 251
SWIDTH 602 0
DWIDTH 11 0
BBX 11 19 0 -3
BITMAP
0000
0000
0000
0E00
1B00
0000
71C0
71C0
71C0
71C0
71C0
71C0
71C0
73C0
7FC0
3CC0
0000
0000
0000
ENDCHAR

STARTCHAR udieresis
ENCODING 252
SWIDTH 602 0
DWIDTH 11 0
BBX 11 19 0 -3
BITMAP
0000
0000
0000
1980
1980
0000
71C0
71C0
71C0
71C0
71C0
71C0
71C0
73C0
7FC0
3CC0
0000
0000
0000
ENDCHAR

STARTCHAR yacute
ENCODING 253
SWIDTH 602 0
DWIDTH 11 0
BBX 11 19 0 -3
BITMAP
0000
0000
0000
0780
0E00
0000
7060
7060
7060
38C0
38C0
1D80
1D80
0F00
0F00
0600
0E00
1C00
1C00
ENDCHAR

STARTCHAR thorn
ENCODING 254
SWIDTH 602 0
DWIDTH 11 0
BBX 11 19 0 -3
BITMAP
0000
0000
0000
7000
7000
7000
7700
7F80
7BC0
71C0
71C0
71C0
71C0
7380
7F80
7600
7000
7000
7000
ENDCHAR

STARTCHAR ydieresis
ENCODING 255
SWIDTH 602 0
DWIDTH 11 0
BBX 11 19 0 -3
BITMAP
0000
0000
0000
1980
1980
0000
7060
7060
7060
38C0
38C0
1D80
1D80
0F00
0F00
0600
0E00
1C00
1C00
ENDCHAR
ENDFONT
